<?xml version="1.0" encoding="utf-8"?>
<!-- Generator: Adobe Adobe Illustrator 29.2.0, SVG Export Plug-In . SVG Version: 6.00 Build 0)  -->
<svg version="1.1" id="_x31_500_x__x_1500_px_Geometric_Logo_3"
	 xmlns="http://www.w3.org/2000/svg" xmlns:xlink="http://www.w3.org/1999/xlink" x="0px" y="0px" viewBox="0 0 700 700"
	 style="enable-background:new 0 0 700 700;" xml:space="preserve">
<style type="text/css">
	.st0{fill:#FEFEFE;stroke:#FFFFFF;stroke-miterlimit:10;}
	.st1{display:none;stroke:#FFFFFF;stroke-miterlimit:10;}
</style>
<g id="Design_Elements_00000100341690494189279070000008979014541625193881_">
	<g>
		<path class="st0" d="M565.11,203.78c-39.06-57.46-98.15-96.27-166.4-109.28s-137.48,1.33-194.93,40.39s-96.27,98.15-109.28,166.4
			s1.33,137.48,40.39,194.93s98.15,96.27,166.4,109.28s137.48-1.33,194.93-40.39s96.27-98.15,109.28-166.4
			C618.51,330.47,604.17,261.24,565.11,203.78z"/>
		<g>
			<g>
				<defs>
					<path id="SVGID_1_" d="M136.96,494.81c-38.68-56.91-52.89-125.47-40-193.06s51.32-126.12,108.23-164.8
						c56.91-38.68,125.47-52.89,193.06-40c67.59,12.89,126.12,51.32,164.8,108.23s52.89,125.47,40,193.06
						c-12.89,67.59-51.32,126.12-108.23,164.8c-56.91,38.68-125.47,52.89-193.06,40C234.16,590.15,175.64,551.72,136.96,494.81z"/>
				</defs>
				<clipPath id="SVGID_00000143606966606939777250000000114962201515034511_">
					<use xlink:href="#SVGID_1_"  style="overflow:visible;"/>
				</clipPath>
			</g>
		</g>
	</g>
	<rect x="-1.98" class="st1" width="701.98" height="700"/>
</g>
</svg>
